HIERARCHY
ROOT Hips
{
	OFFSET 0.000000 0.000000 0.000000
	CHANNELS 6 Xposition Yposition Zposition Zrotation Yrotation Xrotation 
	JOINT LHipJoint
	{
		OFFSET 0.000000 0.000000 0.000000
		CHANNELS 3 Zrotation Yrotation Xrotation
		JOINT LeftUpLeg
		{
			OFFSET 1.363060 -1.794630 0.839290
			CHANNELS 3 Zrotation Yrotation Xrotation
			JOINT LeftLeg
			{
				OFFSET 2.448110 -6.726130 0.000000
				CHANNELS 3 Zrotation Yrotation Xrotation
				JOINT LeftFoot
				{
					OFFSET 2.562200 -7.039590 0.000000
					CHANNELS 3 Zrotation Yrotation Xrotation
					JOINT LeftToeBase
					{
						OFFSET 0.157640 -0.433110 2.322550
						CHANNELS 3 Zrotation Yrotation Xrotation
						End Site
						{
							OFFSET 0.000000 0.000000 0.000000
						}
					}
				}
			}
		}
	}
	JOINT RHipJoint
	{
		OFFSET 0.000000 0.000000 0.000000
		CHANNELS 3 Zrotation Yrotation Xrotation
		JOINT RightUpLeg
		{
			OFFSET -1.305520 -1.794630 0.839290
			CHANNELS 3 Zrotation Yrotation Xrotation
			JOINT RightLeg
			{
				OFFSET -2.542530 -6.985550 0.000000
				CHANNELS 3 Zrotation Yrotation Xrotation
				JOINT RightFoot
				{
					OFFSET -2.568260 -7.056230 0.000000
					CHANNELS 3 Zrotation Yrotation Xrotation
					JOINT RightToeBase
					{
						OFFSET -0.164730 -0.452590 2.363150
						CHANNELS 3 Zrotation Yrotation Xrotation
						End Site
						{
							OFFSET 0.000000 0.000000 0.000000
						}
					}
				}
			}
		}
	}
	JOINT LowerBack
	{
		OFFSET 0.000000 0.000000 0.000000
		CHANNELS 3 Zrotation Yrotation Xrotation
		JOINT Spine
		{
			OFFSET 0.028270 2.035590 -0.193380
			CHANNELS 3 Zrotation Yrotation Xrotation
			JOINT Spine1
			{
				OFFSET 0.056720 2.048850 -0.042750
				CHANNELS 3 Zrotation Yrotation Xrotation
				JOINT Neck
				{
					OFFSET 0.000000 0.000000 0.000000
					CHANNELS 3 Zrotation Yrotation Xrotation
					JOINT Neck1
					{
						OFFSET -0.054170 1.746240 0.172020
						CHANNELS 3 Zrotation Yrotation Xrotation
						JOINT Head
						{
							OFFSET 0.104070 1.761360 -0.123970
							CHANNELS 3 Zrotation Yrotation Xrotation
							End Site
							{
								OFFSET 0.000000 0.000000 0.000000
							}
						}
					}
				}
				JOINT LeftShoulder
				{
					OFFSET 0.000000 0.000000 0.000000
					CHANNELS 3 Zrotation Yrotation Xrotation
					JOINT LeftArm
					{
						OFFSET 3.362410 1.200890 -0.311210
						CHANNELS 3 Zrotation Yrotation Xrotation
						JOINT LeftForeArm
						{
							OFFSET 4.983000 -0.000000 -0.000000
							CHANNELS 3 Zrotation Yrotation Xrotation
							JOINT LeftHand
							{
								OFFSET 3.483560 -0.000000 -0.000000
								CHANNELS 3 Zrotation Yrotation Xrotation
								JOINT LeftFingerBase
								{
									OFFSET 0.000000 0.000000 0.000000
									CHANNELS 3 Zrotation Yrotation Xrotation
									JOINT LeftHandIndex1
									{
										OFFSET 0.715260 -0.000000 -0.000000
										CHANNELS 3 Zrotation Yrotation Xrotation
										End Site
										{
											OFFSET 0.000000 0.000000 0.000000
										}
									}
								}
								JOINT LThumb
								{
									OFFSET 0.000000 0.000000 0.000000
									CHANNELS 3 Zrotation Yrotation Xrotation
									End Site
									{
										OFFSET 0.000000 0.000000 0.000000
									}
								}
							}
						}
					}
				}
				JOINT RightShoulder
				{
					OFFSET 0.000000 0.000000 0.000000
					CHANNELS 3 Zrotation Yrotation Xrotation
					JOINT RightArm
					{
						OFFSET -3.136600 1.374050 -0.404650
						CHANNELS 3 Zrotation Yrotation Xrotation
						JOINT RightForeArm
						{
							OFFSET -5.241900 -0.000000 -0.000000
							CHANNELS 3 Zrotation Yrotation Xrotation
							JOINT RightHand
							{
								OFFSET -3.444170 -0.000000 -0.000000
								CHANNELS 3 Zrotation Yrotation Xrotation
								JOINT RightFingerBase
								{
									OFFSET 0.000000 0.000000 0.000000
									CHANNELS 3 Zrotation Yrotation Xrotation
									JOINT RightHandIndex1
									{
										OFFSET -0.622530 -0.000000 -0.000000
										CHANNELS 3 Zrotation Yrotation Xrotation
										End Site
										{
											OFFSET 0.000000 0.000000 0.000000
										}
									}
								}
								JOINT RThumb
								{
									OFFSET 0.000000 0.000000 0.000000
									CHANNELS 3 Zrotation Yrotation Xrotation
									End Site
									{
										OFFSET 0.000000 0.000000 0.000000
									}
								}
							}
						}
					}
				}
			}
		}
	}
}
MOTION
Frames: 4
Frame Time: 0.008333
10.648795 17.186094 -20.491819 -5.888824 -2.221104 5.091045 11.668983 3.611393 1.723410 -22.286462 -9.181579 -42.461569 4.102639 16.989583 45.120469 -0.674488 5.568540 -0.781118 0.109800 -2.136200 -5.882100 -16.252422 -6.299204 -3.036489 46.039143 -0.867060 8.709894 1.141034 -3.822873 16.992697 -1.202122 4.387885 -8.609396 -0.701500 5.353400 -14.919300 7.066287 2.335997 0.613641 0.373166 2.638366 -3.855232 -0.590028 1.851801 5.625828 -10.583662 -5.613237 -19.149982 4.432893 -4.799145 5.828407 5.723400 -2.623500 10.945200 -6.293996 -4.375441 -0.264396 -74.363450 11.748574 45.771643 14.415765 -26.420665 -4.851049 -0.867293 -3.165669 -5.461363 16.070072 26.976476 8.821200 -7.125000 0.000000 0.000000 -16.235600 60.373900 -6.183200 4.708364 5.836899 1.164324 66.681318 -5.675110 50.030024 -24.168149 32.826539 -8.974297 -0.264547 -0.291270 -15.205796 -18.179269 19.103607 -6.094100 7.125000 0.000000 0.000000 6.745500 -9.826600 5.534800
10.653692 17.177008 -20.387358 -6.118526 -2.219317 5.070296 11.588850 3.561854 1.701786 -21.865028 -9.353433 -42.381855 3.598645 16.512946 43.331480 -0.670510 5.623848 -0.290457 0.107775 -2.116405 -5.827422 -16.223626 -6.275144 -3.135318 46.089556 -1.311083 9.639454 1.290036 -3.444815 16.078208 -1.164485 4.310710 -8.361233 -0.699880 5.347426 -14.902238 7.333873 2.344080 0.680965 0.384356 2.644569 -3.844243 -0.664381 1.867634 5.669893 -10.595247 -5.610523 -19.157927 4.422833 -4.788995 5.802733 5.724666 -2.617323 10.920443 -6.288014 -4.365393 -0.272445 -74.489507 11.948013 45.285905 14.277111 -26.286687 -4.798529 -0.856629 -3.173443 -4.970388 15.691226 27.192835 8.659192 -7.125000 0.000000 0.000000 -16.858168 60.502798 -6.482409 4.714683 5.839943 1.180370 66.572015 -5.365291 49.985068 -24.300231 32.926403 -9.054873 -0.271325 -0.294856 -15.283117 -18.214086 19.217062 -6.138804 7.125000 0.000000 0.000000 6.734109 -9.703828 5.542090
10.658653 17.168093 -20.282757 -6.347936 -2.221652 5.049214 11.508489 3.512400 1.680354 -21.443148 -9.523644 -42.299995 3.095886 16.035567 41.543733 -0.667120 5.681829 0.202125 0.105466 -2.093569 -5.764344 -16.194418 -6.251024 -3.234665 46.135387 -1.759194 10.573271 1.439808 -3.063163 15.154953 -1.126567 4.238018 -8.102796 -0.698201 5.341230 -14.884536 7.601207 2.353900 0.747383 0.395332 2.652989 -3.833552 -0.738779 1.884493 5.712371 -10.607367 -5.607900 -19.161102 4.412644 -4.779211 5.777231 5.725998 -2.611526 10.894663 -6.282301 -4.355002 -0.280503 -74.614703 12.148417 44.805149 14.135648 -26.149507 -4.744469 -0.846322 -3.181232 -4.486090 15.319349 27.407643 8.500803 -7.125000 0.000000 0.000000 -17.471237 60.631790 -6.777997 4.721093 5.842590 1.196252 66.462887 -5.059095 49.940227 -24.431355 33.025820 -9.135009 -0.277993 -0.298484 -15.355894 -18.251503 19.329914 -6.184364 7.125000 0.000000 0.000000 6.720945 -9.581227 5.547861
10.666161 17.165862 -20.172637 -6.565838 -2.386102 5.015015 11.419203 3.466245 1.666460 -21.003765 -9.629221 -42.133739 2.641749 15.529007 39.804799 -0.686844 5.844941 0.770261 0.091999 -1.951154 -5.370867 -16.149020 -6.224544 -3.354384 46.000988 -2.368069 11.674548 1.619854 -2.540158 13.886861 -1.077586 4.341678 -7.440257 -0.694201 5.326295 -14.841603 7.858638 2.432061 0.778217 0.397933 2.748568 -3.834588 -0.814949 1.941738 5.692394 -10.640567 -5.608846 -18.976649 4.397343 -4.783794 5.758464 5.729947 -2.620639 10.828645 -6.287192 -4.331114 -0.288876 -74.706063 12.386793 44.520309 13.883676 -25.886352 -4.629834 -0.850092 -3.189614 -4.264418 15.221584 27.561461 8.484805 -7.125000 0.000000 0.000000 -17.710706 60.764485 -6.931146 4.731095 5.829652 1.205670 66.360623 -4.895412 49.899910 -24.524761 33.107640 -9.197854 -0.280393 -0.303713 -15.249926 -18.391231 19.419070 -6.263597 7.125000 0.000000 0.000000 6.638068 -9.465340 5.493841
